<svg id="_0281_sad_face" xmlns="http://www.w3.org/2000/svg" viewBox="0 0 500 500" data-imageid="sad-face-90" imageName="Sad Face" class="illustrations_image" style="width: 151px;"><defs><style>.cls-1_sad-face-90{fill:#e6e6e6;}.cls-2_sad-face-90{fill:none;opacity:.03;}.cls-3_sad-face-90{opacity:.09;}.cls-3_sad-face-90,.cls-4_sad-face-90{fill:#000001;}.cls-5_sad-face-90{opacity:.44;}.cls-5_sad-face-90,.cls-6_sad-face-90{fill:#fff;}.cls-7_sad-face-90{opacity:.58;}.cls-7_sad-face-90,.cls-8_sad-face-90,.cls-9_sad-face-90{fill:#68e1fd;}.cls-10_sad-face-90{fill:#24285b;}.cls-8_sad-face-90{opacity:.73;}.cls-6_sad-face-90{opacity:.36;}.cls-11_sad-face-90{fill:#ffd200;}</style></defs><g id="bg_sad-face-90"><path class="cls-1_sad-face-90" d="m35.92,170.63c0-6.61,5.36-11.96,11.96-11.96.66,0,1.29.07,1.92.17,2.72-5.05,8.06-8.49,14.2-8.49.2,0,.39.02.59.03-.37-1.49-.59-3.04-.59-4.64,0-10.57,8.57-19.14,19.14-19.14,10.57,0,19.14,8.57,19.14,19.14,0,1.6-.22,3.15-.59,4.64.2,0,.39-.03.59-.03,8.91,0,16.12,7.22,16.12,16.12,0,8.91-7.22,16.12-16.12,16.12h-55.96s.01-.11.01-.11c-5.87-.76-10.41-5.77-10.41-11.85Z"/><path class="cls-1_sad-face-90" d="m464.08,86.07c0-6.51-5.28-11.79-11.79-11.79-.65,0-1.28.07-1.89.17-2.68-4.98-7.95-8.37-14-8.37-.2,0-.39.02-.58.03.37-1.47.58-2.99.58-4.57,0-10.42-8.45-18.87-18.87-18.87-10.42,0-18.87,8.45-18.87,18.87,0,1.58.22,3.11.58,4.57-.19,0-.39-.03-.58-.03-8.78,0-15.9,7.12-15.9,15.9,0,8.78,7.12,15.9,15.9,15.9h55.17v-.11c5.78-.75,10.26-5.69,10.26-11.68Z"/><g class="cls-2_sad-face-90"><ellipse class="cls-4_sad-face-90" cx="261.26" cy="438.13" rx="186.04" ry="19.22"/></g></g><g id="sad_sad-face-90"><path class="cls-10_sad-face-90" d="m373.14,378.48c-.89,0-1.79-.14-2.68-.44-4.4-1.48-6.78-6.24-5.3-10.65,33.88-101.03,1.24-153.89.91-154.42-2.49-3.9-1.38-9.1,2.51-11.61,3.89-2.51,9.06-1.43,11.59,2.45,1.55,2.38,37.63,59.51.93,168.93-1.18,3.52-4.46,5.74-7.97,5.74Z"/><path class="cls-10_sad-face-90" d="m138.7,336.33c-11.36,0-21.29-4.96-27.88-14.12-21.47-29.87,20.29-80.46,25.12-86.13,3.01-3.54,8.32-3.96,11.85-.94,3.53,3.01,3.96,8.32.95,11.85h0c-10.02,11.78-35.99,49.09-24.26,65.4,4.17,5.81,10.32,8.08,18.25,6.78,16.01-2.63,36.91-20.59,45.86-49.81,1.36-4.44,6.06-6.94,10.5-5.58,4.44,1.36,6.94,6.06,5.58,10.5-9.83,32.08-34.17,57.36-59.21,61.48-2.3.38-4.55.56-6.75.56Z"/><path class="cls-11_sad-face-90" d="m128.73,229.23s-17.83,2.84-15.8,16.28c2.03,13.44,22.9,30.81,37.45,25.25,14.55-5.55,6.98-29.23,6.98-29.23l-28.63-12.31Z"/><path class="cls-5_sad-face-90" d="m128.73,229.23s-17.83,2.84-15.8,16.28c2.03,13.44,22.9,30.81,37.45,25.25,14.55-5.55,6.98-29.23,6.98-29.23l-28.63-12.31Z"/><path class="cls-10_sad-face-90" d="m300.66,408.83c-.77,0-1.55-.11-2.33-.33-4.46-1.28-7.04-5.94-5.76-10.4,12.57-43.78,11.52-107.33,11.51-107.97-.09-4.64,3.61-8.48,8.25-8.57,4.62-.09,8.48,3.6,8.57,8.25.05,2.7,1.12,66.7-12.16,112.94-1.06,3.69-4.42,6.09-8.08,6.09Z"/><polygon class="cls-11_sad-face-90" points="326.55 354.87 282.1 354.87 282.1 439.66 366.84 439.66 321.74 412 326.55 354.87"/><path class="cls-10_sad-face-90" d="m244.32,408.83c-3.66,0-7.02-2.4-8.08-6.09-13.49-46.98-.71-111.7-.16-114.43.92-4.55,5.35-7.5,9.9-6.58,4.55.92,7.5,5.35,6.59,9.9-.13.63-12.51,63.47-.16,106.47,1.28,4.46-1.3,9.12-5.76,10.4-.78.22-1.56.33-2.33.33Z"/><circle class="cls-9_sad-face-90 targetColor" cx="269.42" cy="186.48" r="130.79" style="fill: rgb(104, 225, 253);"/><path class="cls-3_sad-face-90" d="m348.43,82.51c12.88,15.89,22.23,35.02,26.54,56.46,14.25,70.82-31.61,139.77-102.43,154.02-38.36,7.72-76.16-2.23-105.03-24.2,29.65,36.59,78.1,55.9,127.48,45.97,70.82-14.25,116.68-83.2,102.43-154.02-6.53-32.45-24.57-59.64-48.99-78.23Z"/><ellipse class="cls-10_sad-face-90" cx="225.1" cy="163.63" rx="12.62" ry="27.84" transform="translate(-27.85 47.61) rotate(-11.37)"/><ellipse class="cls-10_sad-face-90" cx="300.65" cy="148.43" rx="12.62" ry="27.84" transform="translate(-23.37 62.21) rotate(-11.37)"/><path class="cls-10_sad-face-90" d="m227.02,280.43c-1.52,0-2.85-1.1-3.11-2.64-.08-.51-7.71-51.22,51.36-64.92,59.13-13.71,74.57,38.9,74.72,39.43.47,1.68-.51,3.42-2.19,3.89-1.67.47-3.41-.51-3.88-2.18h0c-.55-1.94-14.06-47.33-67.22-34.99-53.38,12.38-46.87,55.91-46.56,57.75.28,1.72-.88,3.34-2.6,3.62-.17.03-.34.04-.52.04Z"/><ellipse class="cls-6_sad-face-90" cx="204.11" cy="206.45" rx="18.92" ry="10.01" transform="translate(-36.71 44.31) rotate(-11.37)"/><ellipse class="cls-6_sad-face-90" cx="339.04" cy="179.31" rx="18.92" ry="10.01" transform="translate(-28.71 70.39) rotate(-11.37)"/><polygon class="cls-11_sad-face-90" points="217.13 350.45 260.97 357.79 246.98 441.42 163.4 427.43 212.45 407.59 217.13 350.45"/><path class="cls-11_sad-face-90" d="m365.72,342.85s-26.7,1.85-24.32,16.44c2.38,14.59,13.97,14.56,13.97,14.56,0,0-10.52,28.3,15.17,28.94,25.69.65,39.14-31.83,31.63-51.57-7.51-19.75-36.46-8.37-36.46-8.37Z"/><path class="cls-11_sad-face-90" d="m405.72,322.69s-57.68-19.54-55.75,4.49c1.93,24.03,33.01,20.32,50.18,23.77,17.17,3.44,26.61-18.45,5.57-28.25Z"/><path class="cls-5_sad-face-90" d="m405.72,322.69s-57.68-19.54-55.75,4.49c1.93,24.03,33.01,20.32,50.18,23.77,17.17,3.44,26.61-18.45,5.57-28.25Z"/><path class="cls-10_sad-face-90" d="m205.5,151.58c-1.15,0-2.25-.63-2.81-1.72-.79-1.55-.18-3.44,1.37-4.24.56-.29,12.8-6.86,15.95-23.94.32-1.71,1.96-2.85,3.67-2.53,1.71.32,2.84,1.96,2.53,3.67-3.74,20.26-18.65,28.08-19.28,28.4-.46.24-.95.35-1.43.35Z"/><path class="cls-10_sad-face-90" d="m315.02,133.06c-.29,0-.58-.04-.87-.12-20.97-5.99-30.15-20.44-30.53-21.05-.92-1.48-.47-3.42,1.01-4.34,1.48-.92,3.42-.47,4.34,1h0c.08.13,8.39,13.03,26.92,18.32,1.67.48,2.64,2.22,2.17,3.9-.4,1.38-1.66,2.29-3.03,2.29Z"/><path class="cls-11_sad-face-90" d="m128.97,202.76s-9.72-58.67,17.42-50.4c17.22,5.25.58,34.61,6.39,50.4,5.81,15.79,18.19,40.38,5.9,49.27-12.29,8.9-34.93,7.51-29.7-49.27Z"/></g><g id="plant_sad-face-90"><path class="cls-8_sad-face-90 targetColor" d="m401.53,417.42s-5.45-11.65,1.73-15.9c7.18-4.25,18.47,3.46,15.55,9.3-2.92,5.85-9.39,6.6-9.39,6.6h-7.88Z" style="fill: rgb(104, 225, 253);"/><polygon class="cls-10_sad-face-90" points="394.47 417.42 397.52 438.31 416.75 438.39 419.58 417.53 394.47 417.42"/><path class="cls-9_sad-face-90 targetColor" d="m407.03,417.47s-.45-9.84,8.72-10.51c9.17-.66,17.41,14.62,10.37,23.79l-7.18-13.02-11.91-.26Z" style="fill: rgb(104, 225, 253);"/><path class="cls-7_sad-face-90 targetColor" d="m407.03,417.47s-2.87-11.61-12.56-10.53c-9.69,1.08-13.41,13.84-8.09,22.22l8.09-11.74,12.56.05Z" style="fill: rgb(104, 225, 253);"/></g></svg>